<svg width="157" height="192" viewBox="0 0 157 192" fill="none" xmlns="http://www.w3.org/2000/svg" xmlns:xlink="http://www.w3.org/1999/xlink">
<g clip-path="url(#clip0_3702_197)">
<path d="M25.3631 87.0816C25.4018 87.159 25.4018 87.1977 25.4405 87.2751C22.5364 89.4038 19.6322 91.5324 16.7667 93.7385C16.2634 94.1255 15.76 94.6674 15.4502 95.2479C11.7716 101.982 8.13168 108.755 4.45306 115.49C4.22073 115.915 4.18201 116.225 4.49178 116.689C13.7851 130.081 24.4338 142.311 36.8249 152.915C52.1976 166.113 69.3903 176.176 88.5966 182.833C105.247 188.599 122.44 191.425 140.058 191.579C140.717 191.579 141.027 191.386 141.336 190.805C144.899 184.187 148.5 177.569 152.024 170.912C152.372 170.254 152.605 169.48 152.605 168.745C152.643 147.806 152.643 126.868 152.643 105.891C152.643 105.543 152.643 105.195 152.643 104.846C142.769 104.266 133.205 102.64 123.873 99.7374C114.541 96.796 105.789 92.6935 97.7738 87.0429C98.1223 87.0429 98.4708 87.0429 98.8193 87.0429C112.953 87.0429 127.048 87.0042 141.181 87.0816C143.118 87.0816 144.24 86.5784 145.17 84.7594C148.577 78.1412 152.179 71.6778 155.78 65.1757C156.322 64.2082 156.515 63.2406 156.515 62.1569C156.477 42.6506 156.477 23.1831 156.477 3.67678C156.477 0.348326 156.128 0 152.759 0C107.067 0 61.3361 0 15.6438 0C14.9855 0 14.366 0.0387029 13.7077 0.0774059C12.9332 0.116109 12.3911 0.541841 12.0426 1.19979C8.44146 7.8954 4.80156 14.6297 1.16167 21.3253C0.50339 22.5638 0 23.7636 0 25.2343C0.0387223 44.5858 0.0387223 63.9759 0.0387223 83.3274C0.0387223 83.9854 0.116167 84.682 0.193611 85.34C0.309778 86.3075 0.890612 86.8107 1.81995 86.9655C2.28461 87.0429 2.788 87.0816 3.25267 87.0816C10.2614 87.0816 17.3089 87.0816 24.3176 87.0816C24.6661 87.0816 25.0146 87.0816 25.3631 87.0816Z" fill="white"/>
<path d="M25.3631 87.0816C25.0146 87.0816 24.6661 87.0816 24.3176 87.0816C17.3089 87.0816 10.2614 87.0816 3.25267 87.0816C2.788 87.0816 2.28461 87.0429 1.81995 86.9655C0.890612 86.8107 0.309778 86.3075 0.193611 85.34C0.116167 84.682 0.0387223 83.9854 0.0387223 83.3274C0.0387223 63.9759 0.0387223 44.5858 0 25.2343C0 23.7636 0.50339 22.5638 1.16167 21.3253C4.80156 14.6297 8.40273 7.9341 12.0426 1.19979C12.3911 0.503138 12.9332 0.116109 13.7077 0.0774059C14.366 0.0387029 14.9855 0 15.6438 0C61.3361 0 107.067 0 152.759 0C156.128 0 156.477 0.348326 156.477 3.67678C156.477 23.1831 156.477 42.6506 156.515 62.1569C156.515 63.2406 156.322 64.2082 155.78 65.1757C152.179 71.6778 148.577 78.1799 145.17 84.7594C144.24 86.5784 143.079 87.0816 141.181 87.0816C127.048 87.0042 112.953 87.0429 98.8193 87.0429C98.4708 87.0429 98.1223 87.0429 97.7738 87.0429C105.789 92.6935 114.541 96.796 123.873 99.7374C133.205 102.679 142.769 104.266 152.643 104.846C152.643 105.195 152.643 105.543 152.643 105.891C152.643 126.829 152.643 147.768 152.605 168.745C152.605 169.48 152.372 170.254 152.024 170.912C148.461 177.569 144.899 184.149 141.336 190.805C141.027 191.347 140.717 191.579 140.058 191.579C122.44 191.425 105.286 188.599 88.5966 182.833C69.429 176.214 52.1976 166.113 36.8249 152.915C24.4338 142.272 13.7851 130.081 4.49178 116.689C4.18201 116.225 4.22073 115.915 4.45306 115.49C8.13168 108.717 11.7716 101.982 15.4502 95.2092C15.76 94.6287 16.2246 94.0868 16.7667 93.6998C19.6322 91.5324 22.5364 89.4038 25.4405 87.2364C25.4018 87.2364 25.4018 87.159 25.3631 87.0816ZM150.862 168.087C150.862 147.497 150.862 127.062 150.862 106.588C150.514 106.549 150.204 106.51 149.894 106.472C146.331 106.046 142.769 105.775 139.245 105.233C126.97 103.259 115.315 99.4665 104.434 93.4676C91.9267 86.5784 81.3168 77.4833 73.0302 65.795C72.5656 65.137 72.1783 64.4791 71.5975 63.5889C99.4775 63.5889 127.087 63.5889 154.812 63.5889C154.812 62.9697 154.812 62.4665 154.812 62.0021C154.812 42.6506 154.812 23.2605 154.773 3.909C154.773 1.58682 155.199 1.81904 152.643 1.81904C106.951 1.81904 61.2974 1.81904 15.6051 1.81904C15.334 1.81904 15.0242 1.85774 14.7532 1.81904C13.9013 1.74163 13.4754 2.05125 13.5915 2.98013C13.6302 3.25105 13.5915 3.48326 13.5915 3.75418C13.5915 22.8734 13.5915 41.9927 13.5915 61.0732C13.5915 64.092 13.2817 63.5889 16.1085 63.5889C30.4357 63.6276 44.7242 63.5889 59.0515 63.5889C59.4 63.5889 59.7098 63.5889 60.0583 63.5889C60.0583 63.6663 60.097 63.7437 60.097 63.8211C46.1957 74.1548 32.2944 84.4498 18.3156 94.8609C20.3679 97.6088 22.304 100.279 24.3176 102.911C32.759 113.825 42.246 123.772 52.9334 132.519C63.3884 141.072 74.734 148.232 87.0477 153.883C97.3478 158.605 108.035 162.165 119.11 164.526C126.544 166.152 134.057 167.197 141.646 167.738C144.666 167.893 147.687 167.932 150.862 168.087Z" fill="black"/>
<path d="M150.862 168.087C147.726 167.932 144.667 167.893 141.608 167.661C134.018 167.119 126.506 166.074 119.071 164.449C107.997 162.049 97.3093 158.527 87.0092 153.806C74.6955 148.155 63.3886 140.995 52.8948 132.442C42.2075 123.695 32.7205 113.748 24.2791 102.834C22.2655 100.202 20.3294 97.5315 18.2771 94.7836C32.2559 84.4112 46.1572 74.0776 60.0585 63.7439C60.0585 63.6665 60.0197 63.5891 60.0197 63.5117C59.6712 63.5117 59.3614 63.5117 59.0129 63.5117C44.6857 63.5117 30.3972 63.5117 16.0699 63.5117C13.2819 63.5117 13.5917 63.9761 13.553 60.996C13.553 41.8767 13.553 22.7575 13.553 3.67695C13.553 3.40603 13.5917 3.17381 13.553 2.90289C13.4368 1.97402 13.8628 1.7031 14.7147 1.7418C14.9857 1.7805 15.2955 1.7418 15.5666 1.7418C61.2588 1.7418 106.912 1.7418 152.605 1.7418C155.16 1.7418 154.734 1.50958 154.734 3.83176C154.773 23.1832 154.773 42.5734 154.773 61.9249C154.773 62.3893 154.773 62.8924 154.773 63.5117C127.048 63.5117 99.439 63.5117 71.559 63.5117C72.1398 64.4018 72.527 65.0598 72.9917 65.7177C81.2783 77.406 91.8882 86.5012 104.395 93.3903C115.276 99.3893 126.971 103.182 139.207 105.156C142.731 105.737 146.293 106.007 149.855 106.395C150.165 106.433 150.475 106.472 150.823 106.511C150.862 127.062 150.862 147.497 150.862 168.087Z" fill="url(#pattern0_3702_197)"/>
</g>
<defs>
<clipPath id="clip0_3702_197">
<rect width="156.515" height="191.618" fill="white"/>
</clipPath>
<pattern id="pattern0_3702_197" patternUnits="userSpaceOnUse" patternTransform="matrix(0.366105 0 0 0.896876 84.0547 84.5944)" preserveAspectRatio="none" viewBox="0 0 72.746 178.211" width="1" height="1">
<use xlink:href="#pattern0_3702_197_inner" transform="translate(-72.746 0)"/>
<g id="pattern0_3702_197_inner">
<g clip-path="url(#clip1_3702_197)">
<path d="M10.7167 36.8131C10.7331 36.8458 10.7331 36.8622 10.7494 36.8949C9.52233 37.7948 8.29522 38.6947 7.08448 39.6273C6.87178 39.7909 6.65908 40.02 6.52819 40.2654C4.97386 43.1123 3.43589 45.9755 1.88156 48.8224C1.78339 49.0023 1.76703 49.1332 1.89792 49.3296C5.82465 54.9906 10.324 60.1608 15.5597 64.6438C22.0551 70.2231 29.3196 74.477 37.4349 77.2912C44.4703 79.729 51.7347 80.9234 59.1791 80.9889C59.4573 80.9889 59.5882 80.9071 59.7191 80.6616C61.2243 77.8638 62.7459 75.066 64.2348 72.2519C64.3821 71.9737 64.4802 71.6465 64.4802 71.3356C64.4966 62.4841 64.4966 53.6326 64.4966 44.7648C64.4966 44.6175 64.4966 44.4702 64.4966 44.323C60.3244 44.0776 56.2832 43.3904 52.3401 42.1633C48.397 40.9198 44.6993 39.1855 41.3125 36.7968C41.4598 36.7968 41.607 36.7968 41.7543 36.7968C47.7262 36.7968 53.6817 36.7804 59.6536 36.8131C60.4717 36.8131 60.9462 36.6004 61.3388 35.8314C62.7786 33.0336 64.3002 30.3013 65.8219 27.5526C66.0509 27.1435 66.1327 26.7345 66.1327 26.2764C66.1164 18.0302 66.1164 9.80047 66.1164 1.55433C66.1164 0.147252 65.9691 0 64.5457 0C45.2392 0 25.9164 0 6.61 0C6.33186 0 6.07007 0.0163614 5.79193 0.0327228C5.4647 0.0490842 5.23564 0.229059 5.08839 0.507203C3.56678 3.33772 2.02881 6.1846 0.490842 9.01512C0.212698 9.53869 0 10.0459 0 10.6676C0.0163614 18.8483 0.0163614 27.0454 0.0163614 35.2261C0.0163614 35.5042 0.0490842 35.7987 0.0818069 36.0769C0.130891 36.4859 0.376312 36.6986 0.768985 36.764C0.965322 36.7968 1.17802 36.8131 1.37436 36.8131C4.33577 36.8131 7.31354 36.8131 10.275 36.8131C10.4222 36.8131 10.5695 36.8131 10.7167 36.8131Z" fill="white"/>
<path d="M10.7167 36.8131C10.5695 36.8131 10.4222 36.8131 10.275 36.8131C7.31354 36.8131 4.33577 36.8131 1.37436 36.8131C1.17802 36.8131 0.965322 36.7968 0.768985 36.764C0.376312 36.6986 0.130891 36.4859 0.0818069 36.0769C0.0490842 35.7987 0.0163614 35.5042 0.0163614 35.2261C0.0163614 27.0454 0.0163614 18.8483 0 10.6676C0 10.0459 0.212698 9.53869 0.490842 9.01512C2.02881 6.1846 3.55042 3.35408 5.08839 0.507203C5.23564 0.212698 5.4647 0.0490842 5.79193 0.0327228C6.07007 0.0163614 6.33186 0 6.61 0C25.9164 0 45.2392 0 64.5457 0C65.9691 0 66.1164 0.147252 66.1164 1.55433C66.1164 9.80047 66.1164 18.0302 66.1327 26.2764C66.1327 26.7345 66.0509 27.1435 65.8219 27.5526C64.3002 30.3013 62.7786 33.05 61.3388 35.8314C60.9462 36.6004 60.4553 36.8131 59.6536 36.8131C53.6817 36.7804 47.7262 36.7968 41.7543 36.7968C41.607 36.7968 41.4598 36.7968 41.3125 36.7968C44.6993 39.1855 48.397 40.9198 52.3401 42.1633C56.2832 43.4068 60.3244 44.0776 64.4966 44.323C64.4966 44.4702 64.4966 44.6175 64.4966 44.7648C64.4966 53.6163 64.4966 62.4678 64.4802 71.3356C64.4802 71.6465 64.3821 71.9737 64.2348 72.2519C62.7296 75.066 61.2243 77.8475 59.7191 80.6616C59.5882 80.8907 59.4573 80.9889 59.1791 80.9889C51.7347 80.9234 44.4866 79.729 37.4349 77.2912C29.336 74.4934 22.0551 70.2231 15.5597 64.6438C10.324 60.1445 5.82465 54.9906 1.89792 49.3296C1.76703 49.1332 1.78339 49.0023 1.88156 48.8224C3.43589 45.9591 4.97386 43.1123 6.52819 40.249C6.65908 40.0036 6.85542 39.7745 7.08448 39.6109C8.29522 38.6947 9.52233 37.7948 10.7494 36.8786C10.7331 36.8786 10.7331 36.8458 10.7167 36.8131ZM63.744 71.0575C63.744 62.3532 63.744 53.7144 63.744 45.0593C63.5967 45.0429 63.4658 45.0265 63.3349 45.0102C61.8297 44.8302 60.3244 44.7157 58.8355 44.4866C53.649 43.6522 48.7242 42.0488 44.1267 39.5127C38.8419 36.6004 34.3589 32.7555 30.8576 27.8144C30.6612 27.5362 30.4976 27.2581 30.2522 26.8818C42.0324 26.8818 53.6981 26.8818 65.4128 26.8818C65.4128 26.62 65.4128 26.4073 65.4128 26.2109C65.4128 18.0302 65.4128 9.83319 65.3965 1.6525C65.3965 0.670817 65.5764 0.768985 64.4966 0.768985C45.1902 0.768985 25.9001 0.768985 6.59364 0.768985C6.47911 0.768985 6.34822 0.785346 6.23369 0.768985C5.87374 0.736262 5.69376 0.867153 5.74285 1.25983C5.75921 1.37436 5.74285 1.47252 5.74285 1.58705C5.74285 9.66958 5.74285 17.7521 5.74285 25.8183C5.74285 27.0945 5.61196 26.8818 6.80634 26.8818C12.86 26.8981 18.8974 26.8818 24.9511 26.8818C25.0984 26.8818 25.2293 26.8818 25.3765 26.8818C25.3765 26.9145 25.3929 26.9472 25.3929 26.9799C19.5191 31.3484 13.6454 35.7005 7.73894 40.1018C8.60609 41.2634 9.42416 42.3923 10.275 43.5049C13.8417 48.1188 17.8503 52.3237 22.366 56.0214C26.7836 59.6372 31.5775 62.6641 36.7804 65.0529C41.1325 67.049 45.6483 68.5542 50.3276 69.5523C53.469 70.2394 56.6431 70.6812 59.85 70.9102C61.1261 70.9757 62.4023 70.9921 63.744 71.0575Z" fill="black"/>
<path d="M63.7442 71.0574C62.4189 70.9919 61.1264 70.9756 59.8338 70.8774C56.627 70.6483 53.4529 70.2066 50.3115 69.5194C45.6321 68.505 41.1164 67.0161 36.7642 65.02C31.5613 62.6313 26.7838 59.6044 22.3499 55.9885C17.8341 52.2909 13.8256 48.086 10.2588 43.4721C9.40801 42.3595 8.58994 41.2306 7.72279 40.0689C13.6292 35.684 19.503 31.3156 25.3767 26.9471C25.3767 26.9143 25.3604 26.8816 25.3604 26.8489C25.2131 26.8489 25.0822 26.8489 24.935 26.8489C18.8813 26.8489 12.8439 26.8489 6.79019 26.8489C5.61217 26.8489 5.74306 27.0452 5.7267 25.7854C5.7267 17.7029 5.7267 9.62036 5.7267 1.55419C5.7267 1.43967 5.74306 1.3415 5.7267 1.22697C5.67762 0.834294 5.85759 0.719764 6.21754 0.736125C6.33207 0.752487 6.46296 0.736125 6.57749 0.736125C25.8839 0.736125 45.174 0.736125 64.4804 0.736125C65.5603 0.736125 65.3803 0.637957 65.3803 1.61964C65.3967 9.80033 65.3967 17.9974 65.3967 26.1781C65.3967 26.3744 65.3967 26.5871 65.3967 26.8489C53.6819 26.8489 42.0163 26.8489 30.2361 26.8489C30.4815 27.2252 30.6451 27.5034 30.8414 27.7815C34.3428 32.7226 38.8258 36.5676 44.1105 39.4799C48.7081 42.0159 53.6492 43.6193 58.8194 44.4538C60.3083 44.6992 61.8135 44.8137 63.3188 44.9773C63.4497 44.9937 63.5806 45.01 63.7278 45.0264C63.7442 53.7143 63.7442 62.3531 63.7442 71.0574Z" fill="white"/>
</g>
</g>
<use xlink:href="#pattern0_3702_197_inner" transform="translate(-36.373 89.1058)"/>
<use xlink:href="#pattern0_3702_197_inner" transform="translate(36.373 89.1058)"/>
</pattern><clipPath id="clip1_3702_197">
<rect width="66.1327" height="81.0052" fill="white"/>
</clipPath>
</defs>
</svg>
